<svg width="28" height="28" viewBox="0 0 28 28" fill="none" xmlns="http://www.w3.org/2000/svg">
  <path d="M15.8465 18.1725C15.6523 18.1208 15.4759 18.0171 15.3362 17.8726C15.1965 17.7281 15.0989 17.5482 15.0537 17.3524C15.0081 17.0526 15.0209 16.7469 15.0913 16.452C15.0946 16.4001 15.0772 16.3491 15.043 16.31C15.0087 16.271 14.9604 16.2471 14.9085 16.2436C14.0252 16.2043 13.2 16.1564 12.631 16.0898C12.1414 16.0316 11.6592 15.9223 11.1924 15.7635C10.6877 15.5901 10.2013 15.3675 9.74018 15.0988C9.10361 14.7341 8.54511 14.2476 8.09656 13.6671C7.78345 13.2792 7.54637 12.8358 7.39776 12.36C7.2287 11.8267 7.17056 11.2645 7.22691 10.7079C7.26661 10.2319 7.3665 9.76285 7.5242 9.312L8.01284 8.08355L7.93766 9.26074C7.87862 10.0053 7.977 10.7539 8.22641 11.4579C8.45965 12.1034 8.86999 12.67 9.41043 13.093C9.86532 13.4292 10.382 13.6725 10.931 13.8089L11.4316 13.9234H11.5102L11.6059 13.8823C11.0152 13.5289 10.4506 13.1338 9.91616 12.7C9.40952 12.263 9.03397 11.6941 8.83123 11.0564C8.70854 10.6481 8.66334 10.2204 8.69796 9.79551C8.72423 9.41683 8.79652 9.04275 8.91324 8.68154C9.04307 8.27534 9.22391 7.88725 9.45143 7.52657C9.70723 7.11304 10.0144 6.73358 10.3655 6.39722C10.7446 6.03622 11.169 5.72608 11.6281 5.47461C10.7431 6.49973 10.1451 7.54536 9.94178 8.62858C9.80774 9.36231 9.95409 10.1196 10.3518 10.7506C10.6918 11.2399 11.1299 11.653 11.6384 11.9637C11.9993 12.1978 12.3871 12.3877 12.7933 12.5292C12.0879 11.9209 11.5001 11.1883 11.0592 10.3679C10.7957 9.75469 10.7552 9.0686 10.9447 8.42868C11.0936 7.87414 11.3804 7.36631 11.7785 6.9525C12.1238 6.56904 12.5178 6.23244 12.9505 5.95129L13.6784 5.50707C13.1282 6.31692 12.6857 7.08918 12.4824 7.77089C12.3368 8.40161 12.4054 9.06283 12.6772 9.65029C12.9284 10.1799 13.3364 10.6195 13.8458 10.9095C14.4079 11.2392 15.7884 11.7996 15.7884 11.7996C16.5634 12.1472 17.2826 12.6078 17.9224 13.1665C18.8638 13.9609 19.349 14.8289 19.2175 15.8062C19.1132 16.4793 18.6571 17.091 17.9651 17.6616C17.9634 17.6736 17.0152 18.4732 15.8465 18.1725Z" fill="#4628DD"/>
  <path d="M17.0494 19.2223C16.9828 19.2325 17.8832 21.4434 17.8832 21.4434L18.4778 23.2476C18.4934 23.345 18.5464 23.4323 18.6256 23.4911C18.7048 23.5498 18.8038 23.5753 18.9015 23.562L21.4267 23.5363C21.1833 23.0988 20.7874 22.7661 20.3144 22.6018C20.0599 22.571 19.9112 22.2396 19.9146 21.9867L19.9232 21.4109C19.9232 21.4109 19.9642 16.3776 19.8976 16.1486C19.8583 16.0068 19.1373 18.8925 17.0494 19.2223Z" fill="#4628DD"/>
  <path d="M16.3624 6.35327L16.3521 8.1797C16.3521 8.1797 16.3521 9.42523 16.1967 9.96C16.0843 10.3207 15.9437 10.672 15.7764 11.0108L16.699 11.5233L17.6985 12.0957L18.5715 12.6612C18.5715 12.6612 18.8945 12.8902 19.2191 13.1635C19.434 13.3472 19.6345 13.5471 19.8188 13.7615C19.9656 13.94 20.0965 14.1309 20.21 14.3322C20.3092 14.5286 20.3805 14.7379 20.4219 14.9541L20.5927 15.9433C20.6153 16.0306 20.6438 16.1162 20.6782 16.1996C20.7186 16.2812 20.7673 16.3585 20.8234 16.4303C20.8905 16.501 20.9663 16.563 21.0489 16.6148C21.0876 16.6425 21.1313 16.6624 21.1776 16.6732C21.2239 16.6841 21.2719 16.6857 21.3189 16.678C21.3189 16.678 21.3667 16.678 21.4009 16.555C21.4197 16.485 21.4197 16.4114 21.4009 16.3414L21.3035 16.1364L21.2762 15.4325L21.2386 14.9199L21.2522 14.4073L21.2762 13.9289C21.2765 13.6295 21.2433 13.3309 21.1771 13.0388C21.1534 12.9216 21.1179 12.8071 21.0711 12.6971C21.0355 12.614 20.9705 12.547 20.8885 12.5088C20.8066 12.4707 20.7134 12.4641 20.6269 12.4904C20.5708 12.5065 20.5138 12.5191 20.4561 12.5279C20.3772 12.5382 20.2971 12.53 20.222 12.504C20.1147 12.4589 20.0197 12.3889 19.9448 12.2998C19.8699 12.2106 19.8174 12.1049 19.7914 11.9915C19.6753 11.5028 19.8171 11.0432 20.2903 10.6246C20.3484 10.5665 20.4065 10.517 20.4612 10.4538C20.7602 10.0984 20.5552 7.66714 20.5552 7.66714V7.27588V6.35156H19.5779V8.56071H19.0089V6.35156H18.0556V8.55729H17.4781V6.35156L16.3624 6.35327Z" fill="#4628DD"/>
  <path d="M20.468 12.0949C20.9703 12.0949 21.3701 11.9958 21.4214 11.8488C21.4726 11.7019 21.0899 11.0697 20.6611 10.9399C20.5449 10.904 20.2903 11.2816 20.2527 11.4866C20.1331 12.1495 20.3399 12.0949 20.468 12.0949Z" fill="#4628DD"/>
  <path d="M7.27637 23.5588H14.5872C14.1738 22.9711 13.7466 22.6225 13.1623 22.6618C13.1623 22.6618 10.6849 22.6294 10.8899 22.6003C13.1264 22.2894 13.5262 20.7807 13.6834 21.0814C13.733 21.7751 13.2443 22.2108 13.3092 22.2108C17.1552 22.2278 16.5042 21.7853 16.5042 21.7853C16.5042 21.7853 16.2701 19.2123 15.8037 19.0295C15.2023 18.9218 14.2934 18.2264 14.1789 17.5704V17.2286C13.3159 17.14 12.4598 16.9945 11.6161 16.793C10.8489 16.793 10.1331 17.326 9.56581 17.9035C8.53107 18.9546 7.81952 20.2805 7.51556 21.7238C7.37698 22.3264 7.29688 22.9409 7.27637 23.5588Z" fill="#4628DD"/>
  <path d="M13.9161 27.8322C21.6017 27.8322 27.8322 21.6017 27.8322 13.9161C27.8322 6.23044 21.6017 0 13.9161 0C6.23044 0 0 6.23044 0 13.9161C0 21.6017 6.23044 27.8322 13.9161 27.8322Z" fill="#27DCE0"/>
  <path d="M15.4266 16.901C15.2324 16.8493 15.0559 16.7456 14.9163 16.6011C14.7766 16.4566 14.6789 16.2768 14.6338 16.0809C14.5882 15.7812 14.6009 15.4754 14.6714 15.1805C14.6747 15.1287 14.6573 15.0776 14.623 15.0385C14.5888 14.9995 14.5404 14.9756 14.4886 14.9721C13.6053 14.9328 12.7801 14.8849 12.2111 14.8183C11.7215 14.7602 11.2393 14.6508 10.7725 14.492C10.2678 14.3186 9.78137 14.096 9.32025 13.8273C8.68369 13.4626 8.12519 12.9761 7.67664 12.3956C7.36353 12.0078 7.12645 11.5643 6.97784 11.0886C6.80878 10.5553 6.75064 9.993 6.80699 9.43639C6.84668 8.9604 6.94658 8.49137 7.10427 8.04051L7.59292 6.81207L7.51774 7.98926C7.4587 8.7338 7.55708 9.48243 7.80648 10.1864C8.03973 10.8319 8.45007 11.3985 8.9905 11.8215C9.4454 12.1578 9.96212 12.401 10.5111 12.5374L11.0117 12.6519H11.0903L11.186 12.6109C10.5953 12.2575 10.0306 11.8623 9.49623 11.4286C8.98959 10.9915 8.61404 10.4226 8.41131 9.78493C8.28862 9.37663 8.24342 8.94896 8.27804 8.52403C8.30431 8.14534 8.3766 7.77127 8.49332 7.41006C8.62315 7.00386 8.80399 6.61577 9.03151 6.25509C9.28731 5.84156 9.59444 5.46209 9.94558 5.12574C10.3247 4.76474 10.7491 4.4546 11.2082 4.20312C10.3232 5.22825 9.72518 6.27388 9.52186 7.35709C9.38782 8.09082 9.53416 8.84814 9.93191 9.47911C10.2719 9.96841 10.71 10.3815 11.2184 10.6922C11.5794 10.9263 11.9671 11.1162 12.3734 11.2577C11.668 10.6494 11.0802 9.91685 10.6392 9.09639C10.3757 8.48321 10.3352 7.79712 10.5248 7.1572C10.6737 6.60265 10.9605 6.09482 11.3585 5.68101C11.7039 5.29755 12.0979 4.96096 12.5306 4.67981L13.2584 4.23559C12.7083 5.04544 12.2658 5.8177 12.0625 6.49941C11.9169 7.13012 11.9854 7.79134 12.2572 8.3788C12.5085 8.90844 12.9164 9.34803 13.4259 9.638C13.988 9.96775 15.3685 10.5282 15.3685 10.5282C16.1435 10.8757 16.8627 11.3363 17.5025 11.895C18.4439 12.6895 18.9291 13.5574 18.7975 14.5347C18.6933 15.2078 18.2371 15.8195 17.5452 16.3902C17.5435 16.4021 16.5952 17.2017 15.4266 16.901Z" fill="#4628DD"/>
  <path d="M16.6295 17.9508C16.5629 17.961 17.4633 20.1719 17.4633 20.1719L18.0578 21.9761C18.0734 22.0735 18.1265 22.1608 18.2057 22.2196C18.2849 22.2783 18.3839 22.3038 18.4816 22.2905L21.0068 22.2649C20.7634 21.8273 20.3675 21.4946 19.8945 21.3303C19.64 21.2995 19.4913 20.9681 19.4947 20.7152L19.5033 20.1394C19.5033 20.1394 19.5443 15.1061 19.4776 14.8771C19.4383 14.7353 18.7173 17.621 16.6295 17.9508Z" fill="#4628DD"/>
  <path d="M15.9425 5.08179L15.9322 6.90822C15.9322 6.90822 15.9322 8.15375 15.7767 8.68852C15.6643 9.04922 15.5238 9.40055 15.3564 9.73927L16.2791 10.2518L17.2786 10.8242L18.1516 11.3897C18.1516 11.3897 18.4745 11.6187 18.7992 11.892C19.0141 12.0757 19.2146 12.2756 19.3989 12.49C19.5456 12.6685 19.6766 12.8594 19.7901 13.0607C19.8893 13.2571 19.9606 13.4665 20.002 13.6826L20.1728 14.6718C20.1954 14.7591 20.2239 14.8448 20.2583 14.9281C20.2987 15.0097 20.3474 15.087 20.4035 15.1588C20.4706 15.2295 20.5464 15.2915 20.629 15.3433C20.6676 15.371 20.7114 15.3909 20.7577 15.4018C20.804 15.4126 20.852 15.4142 20.899 15.4065C20.899 15.4065 20.9468 15.4065 20.981 15.2835C20.9998 15.2135 20.9998 15.1399 20.981 15.0699L20.8836 14.8649L20.8562 14.161L20.8187 13.6484L20.8323 13.1359L20.8562 12.6575C20.8566 12.358 20.8234 12.0594 20.7571 11.7673C20.7334 11.6501 20.698 11.5356 20.6512 11.4256C20.6156 11.3425 20.5506 11.2755 20.4686 11.2374C20.3867 11.1992 20.2935 11.1926 20.207 11.2189C20.1509 11.235 20.0938 11.2476 20.0361 11.2565C19.9573 11.2667 19.8772 11.2586 19.8021 11.2325C19.6948 11.1874 19.5997 11.1174 19.5249 11.0283C19.45 10.9391 19.3974 10.8335 19.3715 10.72C19.2553 10.2313 19.3971 9.77174 19.8704 9.35314C19.9285 9.29505 19.9866 9.2455 20.0413 9.18229C20.3403 8.82691 20.1352 6.39566 20.1352 6.39566V6.0044V5.08008H19.158V7.28922H18.589V5.08008H17.6356V7.28581H17.0582V5.08008L15.9425 5.08179Z" fill="#4628DD"/>
  <path d="M20.0481 10.8234C20.5504 10.8234 20.9502 10.7243 21.0014 10.5773C21.0527 10.4304 20.67 9.79825 20.2411 9.6684C20.125 9.63252 19.8704 10.0101 19.8328 10.2151C19.7132 10.878 19.9199 10.8234 20.0481 10.8234Z" fill="#4628DD"/>
  <path d="M6.85645 22.2873H14.1673C13.7538 21.6996 13.3267 21.351 12.7424 21.3903C12.7424 21.3903 10.265 21.3579 10.47 21.3288C12.7065 21.0179 13.1063 19.5092 13.2635 19.8099C13.313 20.5036 12.8244 20.9393 12.8893 20.9393C16.7352 20.9564 16.0843 20.5138 16.0843 20.5138C16.0843 20.5138 15.8502 17.9408 15.3838 17.758C14.7824 17.6503 13.8734 16.955 13.759 16.2989V15.9572C12.896 15.8685 12.0399 15.723 11.1961 15.5215C10.429 15.5215 9.71313 16.0545 9.14589 16.632C8.11115 17.6832 7.3996 19.009 7.09564 20.4523C6.95706 21.0549 6.87696 21.6694 6.85645 22.2873Z" fill="#4628DD"/>
</svg>
